<svg width="512" height="512" viewBox="0 0 512 512" fill="none" xmlns="http://www.w3.org/2000/svg">
<path fill-rule="evenodd" clip-rule="evenodd" d="M37.5912 106.08C26.0608 115.799 22.129 124.512 22.129 131.314C22.129 138.116 26.0608 146.83 37.5912 156.549C48.8402 166.03 65.6477 174.965 87.1413 182.628C130.019 197.914 189.722 207.503 256 207.503C322.278 207.503 381.981 197.914 424.859 182.628C446.352 174.965 463.16 166.03 474.409 156.549C485.939 146.83 489.871 138.116 489.871 131.314C489.871 124.512 485.939 115.799 474.409 106.08C463.16 96.5983 446.352 87.6633 424.859 80.0007C381.981 64.7147 322.278 55.1254 256 55.1254C189.722 55.1254 130.019 64.7147 87.1413 80.0007C65.6477 87.6633 48.8402 96.5983 37.5912 106.08ZM82.7103 60.6497C127.396 44.7188 188.661 35 256 35C323.339 35 384.604 44.7188 429.29 60.6497C451.578 68.5956 470.201 78.2463 483.437 89.4028C496.392 100.322 506 114.299 506 131.314C506 148.33 496.392 162.307 483.437 173.226C479.466 176.573 475.011 179.784 470.117 182.855L480.596 195.931L256 476.176L31.4035 195.931L41.8831 182.855C36.9892 179.784 32.5336 176.573 28.5628 173.226C15.6081 162.307 6 148.33 6 131.314C6 114.299 15.6081 100.322 28.5628 89.4028C41.799 78.2463 60.4221 68.5956 82.7103 60.6497ZM45.4897 185.046L256 447.715L466.51 185.046C455.832 191.329 443.283 196.99 429.29 201.979C384.604 217.91 323.339 227.629 256 227.629C188.661 227.629 127.396 217.91 82.7103 201.979C68.7166 196.99 56.1677 191.329 45.4897 185.046Z" fill="black"/>
</svg>
