<svg width="64" height="64" viewBox="0 0 64 64" fill="none" xmlns="http://www.w3.org/2000/svg">
<path fill-rule="evenodd" clip-rule="evenodd" d="M14 21C14 19.8954 14.8954 19 16 19H49C50.1046 19 51 19.8954 51 21V22C51 23.1046 50.1046 24 49 24H16C14.8954 24 14 23.1046 14 22V21ZM49 21H16V22H49V21ZM27 25.557L31.7209 30.4683C32.1037 30.8665 32.0912 31.4995 31.693 31.8822C31.2948 32.265 30.6618 32.2525 30.2791 31.8543L28 29.4833V45C28 45.5523 27.5523 46 27 46C26.4477 46 26 45.5523 26 45V29.4833L23.7209 31.8543C23.3382 32.2525 22.7052 32.265 22.307 31.8822C21.9088 31.4995 21.8963 30.8665 22.2791 30.4683L27 25.557ZM19 26C19.5523 26 20 26.4477 20 27V42.5167L22.2791 40.1457C22.6618 39.7475 23.2948 39.735 23.693 40.1178C24.0912 40.5005 24.1037 41.1335 23.7209 41.5317L19 46.443L14.2791 41.5317C13.8963 41.1335 13.9088 40.5005 14.307 40.1178C14.7052 39.735 15.3382 39.7475 15.7209 40.1457L18 42.5167V27C18 26.4477 18.4477 26 19 26ZM33 28C33 26.8954 33.8954 26 35 26H49C50.1046 26 51 26.8954 51 28V29C51 30.1046 50.1046 31 49 31H35C33.8954 31 33 30.1046 33 29V28ZM49 28H35V29H49V28ZM33 35C33 33.8954 33.8954 33 35 33H49C50.1046 33 51 33.8954 51 35V36C51 37.1046 50.1046 38 49 38H35C33.8954 38 33 37.1046 33 36V35ZM49 35H35V36H49V35ZM33 42C33 40.8954 33.8954 40 35 40H49C50.1046 40 51 40.8954 51 42V43C51 44.1046 50.1046 45 49 45H35C33.8954 45 33 44.1046 33 43V42ZM49 42H35V43H49V42Z" fill="black"/>
</svg>
